<?xml version="1.0" standalone="no"?>
<!DOCTYPE svg PUBLIC "-//W3C//DTD SVG 20010904//EN"
 "http://www.w3.org/TR/2001/REC-SVG-20010904/DTD/svg10.dtd">
<svg version="1.0" xmlns="http://www.w3.org/2000/svg"
 width="380.000000pt" height="70.000000pt" viewBox="0 0 380.000000 70.000000"
 preserveAspectRatio="xMidYMid meet">

<g transform="translate(0.000000,70.000000) scale(0.100000,-0.100000)"
fill="#000000" stroke="none">
<path d="M1814 573 c-18 -13 -34 -50 -34 -76 0 -14 17 -59 38 -101 l39 -76
-37 -10 c-84 -23 -305 -40 -510 -40 -211 0 -426 14 -671 45 -202 25 -282 16
-308 -33 -29 -55 7 -122 65 -122 50 0 74 16 74 48 0 38 -13 54 -41 50 -23 -3
-41 -38 -20 -38 6 0 10 5 8 12 -4 20 31 21 37 0 9 -29 -3 -51 -32 -59 -69 -17
-112 72 -56 116 37 29 123 28 400 -4 379 -45 814 -44 1026 0 38 8 74 13 78 10
5 -3 21 -28 36 -55 15 -28 30 -50 34 -50 4 0 21 17 38 39 17 21 46 45 65 55
47 22 151 21 307 -4 307 -48 448 -47 769 7 90 15 199 26 258 27 88 1 105 -2
130 -20 38 -29 42 -68 8 -90 -20 -13 -31 -15 -50 -6 -28 13 -41 48 -25 67 14
17 43 8 36 -11 -3 -7 -1 -16 3 -19 5 -3 11 2 15 10 15 40 -32 69 -65 39 -39
-35 -12 -99 48 -110 26 -5 37 -1 57 19 54 54 20 118 -71 137 -68 15 -129 9
-393 -32 -250 -39 -436 -41 -645 -8 -178 29 -321 36 -370 20 -21 -7 -54 -30
-76 -52 l-38 -39 -26 41 c-15 23 -25 43 -23 44 2 2 32 16 68 33 108 50 160
107 160 178 0 34 -33 65 -71 65 -23 0 -40 -10 -65 -37 -19 -20 -34 -32 -34
-27 0 31 -109 76 -136 57z m108 -50 l38 -37 31 37 c22 26 38 37 58 37 77 0 64
-98 -21 -163 -35 -27 -121 -67 -144 -67 -19 0 -84 132 -84 173 0 69 62 79 122
20z"/>
</g>
</svg>
